{"title":"The Skeptic 2009.DvDRip.XviD.Ac3.Feel-Free","uid":5882205,"size":1128873271,"categoryP":"video","categoryS":"movies","magnet":"?xt=urn:btih:78801c6802e13a52e44962708a852f37ab0f1fd2&amp;dn=The+Skeptic+2009.DvDRip.XviD.Ac3.Feel-Free&amp;tr=udp%3A%2F%2Ftracker.openbittorrent.com%3A80&amp;tr=udp%3A%2F%2Fopen.demonii.com%3A1337&amp;tr=udp%3A%2F%2Ftracker.coppersurfer.tk%3A6969&amp;tr=udp%3A%2F%2Fexodus.desync.com%3A6969","seeders":1,"leechers":0,"uploader":"neon","files":-1,"time":1286873156,"description":"A tormented man's reluctant search for greater\nmeaning in his life.\n\nGenre:Horror | Thriller\nLanguage:English\n &lt;a href=&quot; http://www.imdb.com/title/tt0493451&quot; rel=&quot;nofollow&quot; target=&quot;_NEW&quot;&gt; http://www.imdb.com/title/tt0493451&lt;/a&gt;\nSource:DVD\n\nGeneral\nComplete name :The.Skeptic.2009.DvDRip.XviD.Ac3.Feel-Free\nFormat : AVI\nFormat/Info : Audio Video Interleave\nFile size : 1.05 GiB\nDuration : 1h 27mn\nOverall bit rate : 1 725 Kbps\nVideo #0\nCodec ID : XVID\nCodec ID/Hint : XviD\nDuration : 1h 27mn\nBit rate : 1 267 Kbps\nWidth : 720 pixels\nHeight : 384 pixels\nDisplay aspect ratio : 1.875\nFrame rate : 23.976 fps\nResolution : 24 bits\nColorimetry : 4:2:0\nScan type : Progressive\nBits/(Pixel*Frame) : 0.191\nStream size : 791 MiB (73%)\nWriting library : XviD 1.2.1 (UTC 2008-12-04)\nAudio #1\nID : 1\nFormat : AC-3\nFormat/Info : Audio Coding 3\nCodec ID : 2000\nDuration : 1h 27mn\nBit rate mode : Constant\nBit rate : 448 Kbps\nChannel(s) : 6 channels\nChannel positions : Front: L C R, Surround: L R, LFE\nSampling rate : 48.0 KHz\nStream size : 280 MiB (26%)\nAlignment : Split accross interleaves\nInterleave, duration : 42 ms (1.00 video frame)\nInterleave, preload duration : 500 ms","torrent":{"xt":"urn:btih:78801c6802e13a52e44962708a852f37ab0f1fd2","amp;dn":"The+Skeptic+2009.DvDRip.XviD.Ac3.Feel-Free","amp;tr":["udp%3A%2F%2Ftracker.openbittorrent.com%3A80","udp%3A%2F%2Fopen.demonii.com%3A1337","udp%3A%2F%2Ftracker.coppersurfer.tk%3A6969","udp%3A%2F%2Fexodus.desync.com%3A6969"],"infoHash":"78801c6802e13a52e44962708a852f37ab0f1fd2","infoHashBuffer":{"type":"Buffer","data":[120,128,28,104,2,225,58,82,228,73,98,112,138,133,47,55,171,15,31,210]},"announce":[],"urlList":[]}}